<svg width="24" height="24" viewBox="0 0 24 24" fill="none" xmlns="http://www.w3.org/2000/svg">
<path d="M13.0001 11.7502C12.8101 11.7502 12.6201 11.6802 12.4701 11.5302C12.1801 11.2402 12.1801 10.7602 12.4701 10.4702L20.6701 2.27023C20.9601 1.98023 21.4401 1.98023 21.7301 2.27023C22.0201 2.56023 22.0201 3.04023 21.7301 3.33023L13.5301 11.5302C13.3801 11.6802 13.1901 11.7502 13.0001 11.7502Z" fill="white"/>
<path d="M22.0001 7.55C21.5901 7.55 21.2501 7.21 21.2501 6.8V2.75H17.2001C16.7901 2.75 16.4501 2.41 16.4501 2C16.4501 1.59 16.7901 1.25 17.2001 1.25H22.0001C22.4101 1.25 22.7501 1.59 22.7501 2V6.8C22.7501 7.21 22.4101 7.55 22.0001 7.55Z" fill="white"/>
<path d="M15 22.75H9C3.57 22.75 1.25 20.43 1.25 15V9C1.25 3.57 3.57 1.25 9 1.25H11C11.41 1.25 11.75 1.59 11.75 2C11.75 2.41 11.41 2.75 11 2.75H9C4.39 2.75 2.75 4.39 2.75 9V15C2.75 19.61 4.39 21.25 9 21.25H15C19.61 21.25 21.25 19.61 21.25 15V13C21.25 12.59 21.59 12.25 22 12.25C22.41 12.25 22.75 12.59 22.75 13V15C22.75 20.43 20.43 22.75 15 22.75Z" fill="white"/>
</svg>
