<svg width="30" height="30" viewBox="0 0 30 30" fill="none" xmlns="http://www.w3.org/2000/svg">
<path d="M19.0746 27.8123H10.9246C4.78711 27.8123 2.16211 25.1873 2.16211 19.0498V18.8873C2.16211 13.3373 4.34961 10.6623 9.24961 10.1998C9.74961 10.1623 10.2246 10.5373 10.2746 11.0498C10.3246 11.5623 9.94961 12.0248 9.42461 12.0748C5.49961 12.4373 4.03711 14.2873 4.03711 18.8998V19.0623C4.03711 24.1498 5.83711 25.9498 10.9246 25.9498H19.0746C24.1621 25.9498 25.9621 24.1498 25.9621 19.0623V18.8998C25.9621 14.2623 24.4746 12.4123 20.4746 12.0748C19.9621 12.0248 19.5746 11.5748 19.6246 11.0623C19.6746 10.5498 20.1121 10.1623 20.6371 10.2123C25.6121 10.6373 27.8371 13.3248 27.8371 18.9123V19.0748C27.8371 25.1873 25.2121 27.8123 19.0746 27.8123Z" fill="white"/>
<path d="M15.0005 19.5375C14.488 19.5375 14.063 19.1125 14.063 18.6V2.5C14.063 1.9875 14.488 1.5625 15.0005 1.5625C15.513 1.5625 15.938 1.9875 15.938 2.5V18.6C15.938 19.125 15.513 19.5375 15.0005 19.5375Z" fill="white"/>
<path d="M14.9998 20.9363C14.7623 20.9363 14.5248 20.8488 14.3373 20.6613L10.1498 16.4738C9.7873 16.1113 9.7873 15.5113 10.1498 15.1488C10.5123 14.7863 11.1123 14.7863 11.4748 15.1488L14.9998 18.6738L18.5248 15.1488C18.8873 14.7863 19.4873 14.7863 19.8498 15.1488C20.2123 15.5113 20.2123 16.1113 19.8498 16.4738L15.6623 20.6613C15.4748 20.8488 15.2373 20.9363 14.9998 20.9363Z" fill="white"/>
</svg>
