<svg width="30" height="30" viewBox="0 0 30 30" fill="none" xmlns="http://www.w3.org/2000/svg">
<path d="M25.7755 16.3379C25.3005 16.3379 24.9005 15.9754 24.838 15.5004C24.538 12.6754 23.013 10.1129 20.663 8.48793C20.238 8.18793 20.138 7.61293 20.4255 7.18793C20.7255 6.76293 21.313 6.66293 21.7255 6.95043C24.5255 8.88793 26.3255 11.9379 26.688 15.3004C26.738 15.8129 26.3755 16.2754 25.8505 16.3379C25.838 16.3379 25.8005 16.3379 25.7755 16.3379Z" fill="white"/>
<path d="M4.36238 16.3991C4.32488 16.3991 4.29988 16.3991 4.26238 16.3991C3.74988 16.3366 3.37488 15.8741 3.42488 15.3616C3.76238 11.9991 5.54988 8.9616 8.31238 6.9991C8.73738 6.6991 9.32488 6.7991 9.62488 7.2241C9.92488 7.6491 9.82488 8.2366 9.39988 8.5366C7.07488 10.1741 5.57488 12.7366 5.28738 15.5616C5.24988 16.0366 4.83738 16.3991 4.36238 16.3991Z" fill="white"/>
<path d="M15.0754 28.2625C13.2254 28.2625 11.4629 27.8375 9.81294 27.0125C9.35044 26.775 9.16294 26.2125 9.40044 25.75C9.63794 25.2875 10.2004 25.1 10.6629 25.3375C13.3629 26.7 16.6129 26.725 19.3379 25.4125C19.8004 25.1875 20.3629 25.3875 20.5879 25.85C20.8129 26.3125 20.6129 26.875 20.1504 27.1C18.5504 27.875 16.8504 28.2625 15.0754 28.2625Z" fill="white"/>
<path d="M15.0746 10.5496C12.6371 10.5496 10.6621 8.57461 10.6621 6.13711C10.6621 3.69961 12.6371 1.72461 15.0746 1.72461C17.5121 1.72461 19.4871 3.69961 19.4871 6.13711C19.4871 8.57461 17.4996 10.5496 15.0746 10.5496ZM15.0746 3.61211C13.6746 3.61211 12.5371 4.74961 12.5371 6.14961C12.5371 7.54961 13.6746 8.68711 15.0746 8.68711C16.4746 8.68711 17.6121 7.54961 17.6121 6.14961C17.6121 4.74961 16.4621 3.61211 15.0746 3.61211Z" fill="white"/>
<path d="M6.03799 25.8367C3.60049 25.8367 1.62549 23.8617 1.62549 21.4242C1.62549 18.9992 3.60049 17.0117 6.03799 17.0117C8.47549 17.0117 10.4505 18.9867 10.4505 21.4242C10.4505 23.8492 8.47549 25.8367 6.03799 25.8367ZM6.03799 18.8867C4.63799 18.8867 3.50049 20.0242 3.50049 21.4242C3.50049 22.8242 4.63799 23.9617 6.03799 23.9617C7.43799 23.9617 8.57549 22.8242 8.57549 21.4242C8.57549 20.0242 7.43799 18.8867 6.03799 18.8867Z" fill="white"/>
<path d="M23.9628 25.8367C21.5253 25.8367 19.5503 23.8617 19.5503 21.4242C19.5503 18.9992 21.5253 17.0117 23.9628 17.0117C26.4003 17.0117 28.3753 18.9867 28.3753 21.4242C28.3628 23.8492 26.3878 25.8367 23.9628 25.8367ZM23.9628 18.8867C22.5628 18.8867 21.4253 20.0242 21.4253 21.4242C21.4253 22.8242 22.5628 23.9617 23.9628 23.9617C25.3628 23.9617 26.5003 22.8242 26.5003 21.4242C26.4878 20.0242 25.3628 18.8867 23.9628 18.8867Z" fill="white"/>
</svg>
